<svg width="544" height="554" viewBox="0 0 544 554" fill="none" xmlns="http://www.w3.org/2000/svg">
<circle cx="2" cy="282" r="2" fill="black"/>
<circle cx="152" cy="282" r="2" fill="black"/>
<circle cx="302" cy="282" r="2" fill="black"/>
<circle cx="452" cy="282" r="2" fill="black"/>
<circle cx="52" cy="282" r="2" fill="black"/>
<circle cx="202" cy="282" r="2" fill="black"/>
<circle cx="352" cy="282" r="2" fill="black"/>
<circle cx="502" cy="282" r="2" fill="black"/>
<circle cx="102" cy="282" r="2" fill="black"/>
<circle cx="252" cy="282" r="2" fill="black"/>
<circle cx="402" cy="282" r="2" fill="black"/>
<circle cx="12" cy="282" r="2" fill="black"/>
<circle cx="162" cy="282" r="2" fill="black"/>
<circle cx="312" cy="282" r="2" fill="black"/>
<circle cx="462" cy="282" r="2" fill="black"/>
<circle cx="62" cy="282" r="2" fill="black"/>
<circle cx="212" cy="282" r="2" fill="black"/>
<circle cx="362" cy="282" r="2" fill="black"/>
<circle cx="512" cy="282" r="2" fill="black"/>
<circle cx="112" cy="282" r="2" fill="black"/>
<circle cx="262" cy="282" r="2" fill="black"/>
<circle cx="412" cy="282" r="2" fill="black"/>
<circle cx="22" cy="282" r="2" fill="black"/>
<circle cx="172" cy="282" r="2" fill="black"/>
<circle cx="322" cy="282" r="2" fill="black"/>
<circle cx="472" cy="282" r="2" fill="black"/>
<circle cx="72" cy="282" r="2" fill="black"/>
<circle cx="222" cy="282" r="2" fill="black"/>
<circle cx="372" cy="282" r="2" fill="black"/>
<circle cx="522" cy="282" r="2" fill="black"/>
<circle cx="122" cy="282" r="2" fill="black"/>
<circle cx="272" cy="282" r="2" fill="black"/>
<circle cx="422" cy="282" r="2" fill="black"/>
<circle cx="32" cy="282" r="2" fill="black"/>
<circle cx="182" cy="282" r="2" fill="black"/>
<circle cx="332" cy="282" r="2" fill="black"/>
<circle cx="482" cy="282" r="2" fill="black"/>
<circle cx="82" cy="282" r="2" fill="black"/>
<circle cx="232" cy="282" r="2" fill="black"/>
<circle cx="382" cy="282" r="2" fill="black"/>
<circle cx="532" cy="282" r="2" fill="black"/>
<circle cx="132" cy="282" r="2" fill="black"/>
<circle cx="282" cy="282" r="2" fill="black"/>
<circle cx="432" cy="282" r="2" fill="black"/>
<circle cx="42" cy="282" r="2" fill="black"/>
<circle cx="192" cy="282" r="2" fill="black"/>
<circle cx="342" cy="282" r="2" fill="black"/>
<circle cx="492" cy="282" r="2" fill="black"/>
<circle cx="92" cy="282" r="2" fill="black"/>
<circle cx="242" cy="282" r="2" fill="black"/>
<circle cx="392" cy="282" r="2" fill="black"/>
<circle cx="542" cy="282" r="2" fill="black"/>
<circle cx="142" cy="282" r="2" fill="black"/>
<circle cx="292" cy="282" r="2" fill="black"/>
<circle cx="442" cy="282" r="2" fill="black"/>
<circle cx="272" cy="542" r="2" transform="rotate(-90 272 542)" fill="black"/>
<circle cx="272" cy="552" r="2" transform="rotate(-90 272 552)" fill="black"/>
<circle cx="272" cy="392" r="2" transform="rotate(-90 272 392)" fill="black"/>
<circle cx="272" cy="242" r="2" transform="rotate(-90 272 242)" fill="black"/>
<circle cx="272" cy="92" r="2" transform="rotate(-90 272 92)" fill="black"/>
<circle cx="272" cy="492" r="2" transform="rotate(-90 272 492)" fill="black"/>
<circle cx="272" cy="342" r="2" transform="rotate(-90 272 342)" fill="black"/>
<circle cx="272" cy="192" r="2" transform="rotate(-90 272 192)" fill="black"/>
<circle cx="272" cy="42" r="2" transform="rotate(-90 272 42)" fill="black"/>
<circle cx="272" cy="442" r="2" transform="rotate(-90 272 442)" fill="black"/>
<circle cx="272" cy="292" r="2" transform="rotate(-90 272 292)" fill="black"/>
<circle cx="272" cy="142" r="2" transform="rotate(-90 272 142)" fill="black"/>
<circle cx="272" cy="532" r="2" transform="rotate(-90 272 532)" fill="black"/>
<circle cx="272" cy="382" r="2" transform="rotate(-90 272 382)" fill="black"/>
<circle cx="272" cy="232" r="2" transform="rotate(-90 272 232)" fill="black"/>
<circle cx="272" cy="82" r="2" transform="rotate(-90 272 82)" fill="black"/>
<circle cx="272" cy="482" r="2" transform="rotate(-90 272 482)" fill="black"/>
<circle cx="272" cy="332" r="2" transform="rotate(-90 272 332)" fill="black"/>
<circle cx="272" cy="182" r="2" transform="rotate(-90 272 182)" fill="black"/>
<circle cx="272" cy="32" r="2" transform="rotate(-90 272 32)" fill="black"/>
<circle cx="272" cy="432" r="2" transform="rotate(-90 272 432)" fill="black"/>
<circle cx="272" cy="282" r="2" transform="rotate(-90 272 282)" fill="black"/>
<circle cx="272" cy="132" r="2" transform="rotate(-90 272 132)" fill="black"/>
<circle cx="272" cy="522" r="2" transform="rotate(-90 272 522)" fill="black"/>
<circle cx="272" cy="372" r="2" transform="rotate(-90 272 372)" fill="black"/>
<circle cx="272" cy="222" r="2" transform="rotate(-90 272 222)" fill="black"/>
<circle cx="272" cy="72" r="2" transform="rotate(-90 272 72)" fill="black"/>
<circle cx="272" cy="472" r="2" transform="rotate(-90 272 472)" fill="black"/>
<circle cx="272" cy="322" r="2" transform="rotate(-90 272 322)" fill="black"/>
<circle cx="272" cy="172" r="2" transform="rotate(-90 272 172)" fill="black"/>
<circle cx="272" cy="22" r="2" transform="rotate(-90 272 22)" fill="black"/>
<circle cx="272" cy="422" r="2" transform="rotate(-90 272 422)" fill="black"/>
<circle cx="272" cy="272" r="2" transform="rotate(-90 272 272)" fill="black"/>
<circle cx="272" cy="122" r="2" transform="rotate(-90 272 122)" fill="black"/>
<circle cx="272" cy="512" r="2" transform="rotate(-90 272 512)" fill="black"/>
<circle cx="272" cy="362" r="2" transform="rotate(-90 272 362)" fill="black"/>
<circle cx="272" cy="212" r="2" transform="rotate(-90 272 212)" fill="black"/>
<circle cx="272" cy="62" r="2" transform="rotate(-90 272 62)" fill="black"/>
<circle cx="272" cy="462" r="2" transform="rotate(-90 272 462)" fill="black"/>
<circle cx="272" cy="312" r="2" transform="rotate(-90 272 312)" fill="black"/>
<circle cx="272" cy="162" r="2" transform="rotate(-90 272 162)" fill="black"/>
<circle cx="272" cy="12" r="2" transform="rotate(-90 272 12)" fill="black"/>
<circle cx="272" cy="412" r="2" transform="rotate(-90 272 412)" fill="black"/>
<circle cx="272" cy="262" r="2" transform="rotate(-90 272 262)" fill="black"/>
<circle cx="272" cy="112" r="2" transform="rotate(-90 272 112)" fill="black"/>
<circle cx="272" cy="502" r="2" transform="rotate(-90 272 502)" fill="black"/>
<circle cx="272" cy="352" r="2" transform="rotate(-90 272 352)" fill="black"/>
<circle cx="272" cy="202" r="2" transform="rotate(-90 272 202)" fill="black"/>
<circle cx="272" cy="52" r="2" transform="rotate(-90 272 52)" fill="black"/>
<circle cx="272" cy="452" r="2" transform="rotate(-90 272 452)" fill="black"/>
<circle cx="272" cy="302" r="2" transform="rotate(-90 272 302)" fill="black"/>
<circle cx="272" cy="152" r="2" transform="rotate(-90 272 152)" fill="black"/>
<circle cx="272" cy="2" r="2" transform="rotate(-90 272 2)" fill="black"/>
<circle cx="272" cy="402" r="2" transform="rotate(-90 272 402)" fill="black"/>
<circle cx="272" cy="252" r="2" transform="rotate(-90 272 252)" fill="black"/>
<circle cx="272" cy="102" r="2" transform="rotate(-90 272 102)" fill="black"/>
<path d="M529 294.5C529 326.477 522.702 358.141 510.465 387.683C498.228 417.226 480.292 444.069 457.68 466.681C435.069 489.292 408.226 507.228 378.683 519.465C349.141 531.702 317.477 538 285.5 538L285.5 294.5H529Z" fill="#0D2436"/>
<path d="M285.5 26C317.477 26 349.141 32.2983 378.683 44.5353C408.226 56.7724 435.069 74.7084 457.681 97.3195C480.292 119.931 498.228 146.774 510.465 176.317C522.702 205.859 529 237.523 529 269.5L285.5 269.5V26Z" fill="#70C4C4"/>
<path d="M259.5 538C227.523 538 195.859 531.702 166.317 519.465C136.774 507.228 109.931 489.292 87.3195 466.68C64.7084 444.069 46.7724 417.226 34.5353 387.683C22.2983 358.141 16 326.477 16 294.5L259.5 294.5V538Z" fill="#FCC220"/>
<path d="M16 269.5C16 237.523 22.2983 205.859 34.5353 176.317C46.7724 146.774 64.7084 119.931 87.3195 97.3195C109.931 74.7084 136.774 56.7724 166.317 44.5353C195.859 32.2983 227.523 26 259.5 26L259.5 269.5L16 269.5Z" fill="#DD5F22"/>
<path d="M307.736 220V200.4H317.004C320 200.4 322.072 201.184 323.388 202.528C324.536 203.648 325.124 205.16 325.124 207.092V207.148C325.124 210.144 323.528 212.132 321.092 213.168L325.768 220H319.496L315.548 214.064H315.492H313.168V220H307.736ZM313.168 209.808H316.752C318.6 209.808 319.664 208.912 319.664 207.484V207.428C319.664 205.888 318.544 205.104 316.724 205.104H313.168V209.808ZM334.784 220.364C330.024 220.364 326.664 217.2 326.664 212.496V212.44C326.664 208.016 329.828 204.516 334.308 204.516C339.544 204.516 341.952 208.352 341.952 212.804C341.952 213.14 341.952 213.532 341.924 213.896H331.788C332.208 215.548 333.412 216.388 335.064 216.388C336.324 216.388 337.332 215.912 338.424 214.848L341.364 217.284C339.908 219.132 337.808 220.364 334.784 220.364ZM331.704 211.18H336.968C336.772 209.5 335.792 208.436 334.336 208.436C332.936 208.436 331.984 209.528 331.704 211.18ZM350.253 220.308C347.061 220.308 345.157 218.908 345.157 215.296V209.136H343.365V204.852H345.157V201.016H350.477V204.852H354.005V209.136H350.477V214.26C350.477 215.324 350.953 215.772 351.933 215.772C352.633 215.772 353.305 215.576 353.949 215.268V219.44C352.997 219.972 351.737 220.308 350.253 220.308ZM361.331 220.336C358.111 220.336 356.179 218.208 356.179 214.764V204.852H361.499V213.056C361.499 214.708 362.367 215.604 363.655 215.604C364.915 215.604 365.867 214.708 365.867 213.056V204.852H371.187V220H365.867V217.928C364.887 219.188 363.487 220.336 361.331 220.336ZM374.037 220V204.852H379.357V207.904C380.225 205.832 381.625 204.488 384.145 204.6V210.2H383.697C380.925 210.2 379.357 211.796 379.357 215.296V220H374.037ZM386.014 220V204.852H391.334V206.98C392.314 205.72 393.714 204.516 395.87 204.516C399.09 204.516 401.022 206.644 401.022 210.088V220H395.702V211.796C395.702 210.144 394.834 209.248 393.574 209.248C392.286 209.248 391.334 210.144 391.334 211.796V220H386.014ZM308.38 251V240.108H306.616V235.936H308.38V235.6C308.38 233.864 308.772 232.576 309.668 231.68C310.592 230.756 311.824 230.364 313.616 230.364C315.24 230.364 316.248 230.532 317.088 230.784V234.536C316.472 234.34 315.856 234.228 315.1 234.228C314.12 234.228 313.588 234.676 313.588 235.656V236.02H317.06V240.108H313.672V251H308.38ZM318.748 251V235.852H324.068V238.904C324.936 236.832 326.336 235.488 328.856 235.6V241.2H328.408C325.636 241.2 324.068 242.796 324.068 246.296V251H318.748ZM338.179 251.364C333.335 251.364 329.835 247.808 329.835 243.496V243.44C329.835 239.128 333.363 235.516 338.235 235.516C343.079 235.516 346.579 239.072 346.579 243.384V243.44C346.579 247.752 343.051 251.364 338.179 251.364ZM338.235 246.856C340.167 246.856 341.399 245.316 341.399 243.496V243.44C341.399 241.592 340.055 240.024 338.179 240.024C336.247 240.024 335.015 241.564 335.015 243.384V243.44C335.015 245.288 336.359 246.856 338.235 246.856ZM348.826 251V235.852H354.146V237.924C355.126 236.664 356.526 235.516 358.654 235.516C360.67 235.516 362.21 236.412 363.022 237.98C364.338 236.468 365.878 235.516 368.09 235.516C371.31 235.516 373.27 237.532 373.27 241.06V251H367.95V242.768C367.95 241.116 367.138 240.248 365.878 240.248C364.618 240.248 363.694 241.116 363.694 242.768V251H358.374V242.768C358.374 241.116 357.562 240.248 356.302 240.248C355.042 240.248 354.146 241.116 354.146 242.768V251H348.826ZM383.772 251V230.56H389.092V237.924C390.072 236.664 391.472 235.516 393.628 235.516C396.848 235.516 398.78 237.644 398.78 241.088V251H393.46V242.796C393.46 241.144 392.592 240.248 391.332 240.248C390.044 240.248 389.092 241.144 389.092 242.796V251H383.772ZM409.246 251.364C404.402 251.364 400.902 247.808 400.902 243.496V243.44C400.902 239.128 404.43 235.516 409.302 235.516C414.146 235.516 417.646 239.072 417.646 243.384V243.44C417.646 247.752 414.118 251.364 409.246 251.364ZM409.302 246.856C411.234 246.856 412.466 245.316 412.466 243.496V243.44C412.466 241.592 411.122 240.024 409.246 240.024C407.314 240.024 406.082 241.564 406.082 243.384V243.44C406.082 245.288 407.426 246.856 409.302 246.856ZM419.893 251V235.852H425.213V237.924C426.193 236.664 427.593 235.516 429.721 235.516C431.737 235.516 433.277 236.412 434.089 237.98C435.405 236.468 436.945 235.516 439.157 235.516C442.377 235.516 444.337 237.532 444.337 241.06V251H439.017V242.768C439.017 241.116 438.205 240.248 436.945 240.248C435.685 240.248 434.761 241.116 434.761 242.768V251H429.441V242.768C429.441 241.116 428.629 240.248 427.369 240.248C426.109 240.248 425.213 241.116 425.213 242.768V251H419.893ZM454.577 251.364C449.817 251.364 446.457 248.2 446.457 243.496V243.44C446.457 239.016 449.621 235.516 454.101 235.516C459.337 235.516 461.745 239.352 461.745 243.804C461.745 244.14 461.745 244.532 461.717 244.896H451.581C452.001 246.548 453.205 247.388 454.857 247.388C456.117 247.388 457.125 246.912 458.217 245.848L461.157 248.284C459.701 250.132 457.601 251.364 454.577 251.364ZM451.497 242.18H456.761C456.565 240.5 455.585 239.436 454.129 239.436C452.729 239.436 451.777 240.528 451.497 242.18Z" fill="white"/>
<path d="M168.427 219V199.4H177.695C180.691 199.4 182.763 200.184 184.079 201.528C185.227 202.648 185.815 204.16 185.815 206.092V206.148C185.815 209.144 184.219 211.132 181.783 212.168L186.459 219H180.187L176.239 213.064H176.183H173.859V219H168.427ZM173.859 208.808H177.443C179.291 208.808 180.355 207.912 180.355 206.484V206.428C180.355 204.888 179.235 204.104 177.415 204.104H173.859V208.808ZM195.475 219.364C190.715 219.364 187.355 216.2 187.355 211.496V211.44C187.355 207.016 190.519 203.516 194.999 203.516C200.235 203.516 202.643 207.352 202.643 211.804C202.643 212.14 202.643 212.532 202.615 212.896H192.479C192.899 214.548 194.103 215.388 195.755 215.388C197.015 215.388 198.023 214.912 199.115 213.848L202.055 216.284C200.599 218.132 198.499 219.364 195.475 219.364ZM192.395 210.18H197.659C197.463 208.5 196.483 207.436 195.027 207.436C193.627 207.436 192.675 208.528 192.395 210.18ZM205.876 219V208.108H204.112V203.936H205.876V203.6C205.876 201.864 206.268 200.576 207.164 199.68C208.088 198.756 209.32 198.364 211.112 198.364C212.736 198.364 213.744 198.532 214.584 198.784V202.536C213.968 202.34 213.352 202.228 212.596 202.228C211.616 202.228 211.084 202.676 211.084 203.656V204.02H214.556V208.108H211.168V219H205.876ZM216.244 202.48V198.56H221.788V202.48H216.244ZM216.356 219V203.852H221.676V219H216.356ZM224.751 219V198.56H230.071V219H224.751ZM233.145 219V198.56H238.465V219H233.145ZM129.065 250.336C126.181 250.336 123.969 248.684 123.969 245.66V245.604C123.969 242.468 126.349 240.844 129.905 240.844C131.305 240.844 132.677 241.124 133.545 241.432V241.18C133.545 239.612 132.565 238.716 130.521 238.716C128.925 238.716 127.693 239.024 126.349 239.556L125.257 235.804C126.965 235.104 128.785 234.628 131.389 234.628C134.105 234.628 135.953 235.272 137.157 236.476C138.305 237.596 138.781 239.164 138.781 241.292V250H133.517V248.432C132.481 249.58 131.053 250.336 129.065 250.336ZM130.969 247.004C132.509 247.004 133.601 246.024 133.601 244.512V243.812C133.069 243.588 132.313 243.42 131.529 243.42C129.989 243.42 129.093 244.176 129.093 245.296V245.352C129.093 246.388 129.877 247.004 130.969 247.004ZM147.37 250.308C144.178 250.308 142.274 248.908 142.274 245.296V239.136H140.482V234.852H142.274V231.016H147.594V234.852H151.122V239.136H147.594V244.26C147.594 245.324 148.07 245.772 149.05 245.772C149.75 245.772 150.422 245.576 151.066 245.268V249.44C150.114 249.972 148.854 250.308 147.37 250.308ZM161.174 250V229.56H166.494V236.924C167.474 235.664 168.874 234.516 171.03 234.516C174.25 234.516 176.182 236.644 176.182 240.088V250H170.862V241.796C170.862 240.144 169.994 239.248 168.734 239.248C167.446 239.248 166.494 240.144 166.494 241.796V250H161.174ZM186.648 250.364C181.804 250.364 178.304 246.808 178.304 242.496V242.44C178.304 238.128 181.832 234.516 186.704 234.516C191.548 234.516 195.048 238.072 195.048 242.384V242.44C195.048 246.752 191.52 250.364 186.648 250.364ZM186.704 245.856C188.636 245.856 189.868 244.316 189.868 242.496V242.44C189.868 240.592 188.524 239.024 186.648 239.024C184.716 239.024 183.484 240.564 183.484 242.384V242.44C183.484 244.288 184.828 245.856 186.704 245.856ZM197.295 250V234.852H202.615V236.924C203.595 235.664 204.995 234.516 207.123 234.516C209.139 234.516 210.679 235.412 211.491 236.98C212.807 235.468 214.347 234.516 216.559 234.516C219.779 234.516 221.739 236.532 221.739 240.06V250H216.419V241.768C216.419 240.116 215.607 239.248 214.347 239.248C213.087 239.248 212.163 240.116 212.163 241.768V250H206.843V241.768C206.843 240.116 206.031 239.248 204.771 239.248C203.511 239.248 202.615 240.116 202.615 241.768V250H197.295ZM231.979 250.364C227.219 250.364 223.859 247.2 223.859 242.496V242.44C223.859 238.016 227.023 234.516 231.503 234.516C236.739 234.516 239.147 238.352 239.147 242.804C239.147 243.14 239.147 243.532 239.119 243.896H228.983C229.403 245.548 230.607 246.388 232.259 246.388C233.519 246.388 234.527 245.912 235.619 244.848L238.559 247.284C237.103 249.132 235.003 250.364 231.979 250.364ZM228.899 241.18H234.163C233.967 239.5 232.987 238.436 231.531 238.436C230.131 238.436 229.179 239.528 228.899 241.18Z" fill="white"/>
<path d="M168.427 341V321.4H177.695C180.691 321.4 182.763 322.184 184.079 323.528C185.227 324.648 185.815 326.16 185.815 328.092V328.148C185.815 331.144 184.219 333.132 181.783 334.168L186.459 341H180.187L176.239 335.064H176.183H173.859V341H168.427ZM173.859 330.808H177.443C179.291 330.808 180.355 329.912 180.355 328.484V328.428C180.355 326.888 179.235 326.104 177.415 326.104H173.859V330.808ZM195.475 341.364C190.715 341.364 187.355 338.2 187.355 333.496V333.44C187.355 329.016 190.519 325.516 194.999 325.516C200.235 325.516 202.643 329.352 202.643 333.804C202.643 334.14 202.643 334.532 202.615 334.896H192.479C192.899 336.548 194.103 337.388 195.755 337.388C197.015 337.388 198.023 336.912 199.115 335.848L202.055 338.284C200.599 340.132 198.499 341.364 195.475 341.364ZM192.395 332.18H197.659C197.463 330.5 196.483 329.436 195.027 329.436C193.627 329.436 192.675 330.528 192.395 332.18ZM205.876 341V330.108H204.112V325.936H205.876V325.6C205.876 323.864 206.268 322.576 207.164 321.68C208.088 320.756 209.32 320.364 211.112 320.364C212.736 320.364 213.744 320.532 214.584 320.784V324.536C213.968 324.34 213.352 324.228 212.596 324.228C211.616 324.228 211.084 324.676 211.084 325.656V326.02H214.556V330.108H211.168V341H205.876ZM216.244 324.48V320.56H221.788V324.48H216.244ZM216.356 341V325.852H221.676V341H216.356ZM224.751 341V320.56H230.071V341H224.751ZM233.145 341V320.56H238.465V341H233.145ZM113.449 372.364C108.605 372.364 105.105 368.808 105.105 364.496V364.44C105.105 360.128 108.633 356.516 113.505 356.516C118.349 356.516 121.849 360.072 121.849 364.384V364.44C121.849 368.752 118.321 372.364 113.449 372.364ZM113.505 367.856C115.437 367.856 116.669 366.316 116.669 364.496V364.44C116.669 362.592 115.325 361.024 113.449 361.024C111.517 361.024 110.285 362.564 110.285 364.384V364.44C110.285 366.288 111.629 367.856 113.505 367.856ZM124.096 372V356.852H129.416V358.98C130.396 357.72 131.796 356.516 133.952 356.516C137.172 356.516 139.104 358.644 139.104 362.088V372H133.784V363.796C133.784 362.144 132.916 361.248 131.656 361.248C130.368 361.248 129.416 362.144 129.416 363.796V372H124.096ZM155.628 372.308C152.436 372.308 150.532 370.908 150.532 367.296V361.136H148.74V356.852H150.532V353.016H155.852V356.852H159.38V361.136H155.852V366.26C155.852 367.324 156.328 367.772 157.308 367.772C158.008 367.772 158.68 367.576 159.324 367.268V371.44C158.372 371.972 157.112 372.308 155.628 372.308ZM161.666 372V351.56H166.986V358.924C167.966 357.664 169.366 356.516 171.522 356.516C174.742 356.516 176.674 358.644 176.674 362.088V372H171.354V363.796C171.354 362.144 170.486 361.248 169.226 361.248C167.938 361.248 166.986 362.144 166.986 363.796V372H161.666ZM186.916 372.364C182.156 372.364 178.796 369.2 178.796 364.496V364.44C178.796 360.016 181.96 356.516 186.44 356.516C191.676 356.516 194.084 360.352 194.084 364.804C194.084 365.14 194.084 365.532 194.056 365.896H183.92C184.34 367.548 185.544 368.388 187.196 368.388C188.456 368.388 189.464 367.912 190.556 366.848L193.496 369.284C192.04 371.132 189.94 372.364 186.916 372.364ZM183.836 363.18H189.1C188.904 361.5 187.924 360.436 186.468 360.436C185.068 360.436 184.116 361.528 183.836 363.18ZM211.579 376.536C208.639 376.536 206.175 375.92 203.991 374.8L205.699 371.272C207.323 372.168 208.947 372.7 210.991 372.7C213.651 372.7 214.967 371.384 214.967 368.976V368.388C213.903 369.62 212.503 370.656 210.291 370.656C206.567 370.656 203.571 367.968 203.571 363.628V363.572C203.571 359.204 206.623 356.516 210.123 356.516C212.391 356.516 213.735 357.44 214.883 358.644V356.852H220.203V368.36C220.203 371.132 219.587 373.064 218.243 374.408C216.871 375.78 214.743 376.536 211.579 376.536ZM211.887 366.568C213.679 366.568 214.967 365.308 214.967 363.628V363.572C214.967 361.892 213.679 360.66 211.887 360.66C210.067 360.66 208.779 361.92 208.779 363.6V363.656C208.779 365.336 210.067 366.568 211.887 366.568ZM230.781 372.364C225.937 372.364 222.437 368.808 222.437 364.496V364.44C222.437 360.128 225.965 356.516 230.837 356.516C235.681 356.516 239.181 360.072 239.181 364.384V364.44C239.181 368.752 235.653 372.364 230.781 372.364ZM230.837 367.856C232.769 367.856 234.001 366.316 234.001 364.496V364.44C234.001 362.592 232.657 361.024 230.781 361.024C228.849 361.024 227.617 362.564 227.617 364.384V364.44C227.617 366.288 228.961 367.856 230.837 367.856Z" fill="white"/>
<path d="M307.736 341V321.4H317.004C320 321.4 322.072 322.184 323.388 323.528C324.536 324.648 325.124 326.16 325.124 328.092V328.148C325.124 331.144 323.528 333.132 321.092 334.168L325.768 341H319.496L315.548 335.064H315.492H313.168V341H307.736ZM313.168 330.808H316.752C318.6 330.808 319.664 329.912 319.664 328.484V328.428C319.664 326.888 318.544 326.104 316.724 326.104H313.168V330.808ZM334.784 341.364C330.024 341.364 326.664 338.2 326.664 333.496V333.44C326.664 329.016 329.828 325.516 334.308 325.516C339.544 325.516 341.952 329.352 341.952 333.804C341.952 334.14 341.952 334.532 341.924 334.896H331.788C332.208 336.548 333.412 337.388 335.064 337.388C336.324 337.388 337.332 336.912 338.424 335.848L341.364 338.284C339.908 340.132 337.808 341.364 334.784 341.364ZM331.704 332.18H336.968C336.772 330.5 335.792 329.436 334.336 329.436C332.936 329.436 331.984 330.528 331.704 332.18ZM350.253 341.308C347.061 341.308 345.157 339.908 345.157 336.296V330.136H343.365V325.852H345.157V322.016H350.477V325.852H354.005V330.136H350.477V335.26C350.477 336.324 350.953 336.772 351.933 336.772C352.633 336.772 353.305 336.576 353.949 336.268V340.44C352.997 340.972 351.737 341.308 350.253 341.308ZM361.331 341.336C358.111 341.336 356.179 339.208 356.179 335.764V325.852H361.499V334.056C361.499 335.708 362.367 336.604 363.655 336.604C364.915 336.604 365.867 335.708 365.867 334.056V325.852H371.187V341H365.867V338.928C364.887 340.188 363.487 341.336 361.331 341.336ZM374.037 341V325.852H379.357V328.904C380.225 326.832 381.625 325.488 384.145 325.6V331.2H383.697C380.925 331.2 379.357 332.796 379.357 336.296V341H374.037ZM386.014 341V325.852H391.334V327.98C392.314 326.72 393.714 325.516 395.87 325.516C399.09 325.516 401.022 327.644 401.022 331.088V341H395.702V332.796C395.702 331.144 394.834 330.248 393.574 330.248C392.286 330.248 391.334 331.144 391.334 332.796V341H386.014ZM315.156 372.364C310.312 372.364 306.812 368.808 306.812 364.496V364.44C306.812 360.128 310.34 356.516 315.212 356.516C320.056 356.516 323.556 360.072 323.556 364.384V364.44C323.556 368.752 320.028 372.364 315.156 372.364ZM315.212 367.856C317.144 367.856 318.376 366.316 318.376 364.496V364.44C318.376 362.592 317.032 361.024 315.156 361.024C313.224 361.024 311.992 362.564 311.992 364.384V364.44C311.992 366.288 313.336 367.856 315.212 367.856ZM325.803 372V356.852H331.123V358.98C332.103 357.72 333.503 356.516 335.659 356.516C338.879 356.516 340.811 358.644 340.811 362.088V372H335.491V363.796C335.491 362.144 334.623 361.248 333.363 361.248C332.075 361.248 331.123 362.144 331.123 363.796V372H325.803ZM357.335 372.308C354.143 372.308 352.239 370.908 352.239 367.296V361.136H350.447V356.852H352.239V353.016H357.559V356.852H361.087V361.136H357.559V366.26C357.559 367.324 358.035 367.772 359.015 367.772C359.715 367.772 360.387 367.576 361.031 367.268V371.44C360.079 371.972 358.819 372.308 357.335 372.308ZM363.373 372V351.56H368.693V358.924C369.673 357.664 371.073 356.516 373.229 356.516C376.449 356.516 378.381 358.644 378.381 362.088V372H373.061V363.796C373.061 362.144 372.193 361.248 370.933 361.248C369.645 361.248 368.693 362.144 368.693 363.796V372H363.373ZM388.623 372.364C383.863 372.364 380.503 369.2 380.503 364.496V364.44C380.503 360.016 383.667 356.516 388.147 356.516C393.383 356.516 395.791 360.352 395.791 364.804C395.791 365.14 395.791 365.532 395.763 365.896H385.627C386.047 367.548 387.251 368.388 388.903 368.388C390.163 368.388 391.171 367.912 392.263 366.848L395.203 369.284C393.747 371.132 391.647 372.364 388.623 372.364ZM385.543 363.18H390.807C390.611 361.5 389.631 360.436 388.175 360.436C386.775 360.436 385.823 361.528 385.543 363.18ZM413.286 376.536C410.346 376.536 407.882 375.92 405.698 374.8L407.406 371.272C409.03 372.168 410.654 372.7 412.698 372.7C415.358 372.7 416.674 371.384 416.674 368.976V368.388C415.61 369.62 414.21 370.656 411.998 370.656C408.274 370.656 405.278 367.968 405.278 363.628V363.572C405.278 359.204 408.33 356.516 411.83 356.516C414.098 356.516 415.442 357.44 416.59 358.644V356.852H421.91V368.36C421.91 371.132 421.294 373.064 419.95 374.408C418.578 375.78 416.45 376.536 413.286 376.536ZM413.594 366.568C415.386 366.568 416.674 365.308 416.674 363.628V363.572C416.674 361.892 415.386 360.66 413.594 360.66C411.774 360.66 410.486 361.92 410.486 363.6V363.656C410.486 365.336 411.774 366.568 413.594 366.568ZM432.488 372.364C427.644 372.364 424.144 368.808 424.144 364.496V364.44C424.144 360.128 427.672 356.516 432.544 356.516C437.388 356.516 440.888 360.072 440.888 364.384V364.44C440.888 368.752 437.36 372.364 432.488 372.364ZM432.544 367.856C434.476 367.856 435.708 366.316 435.708 364.496V364.44C435.708 362.592 434.364 361.024 432.488 361.024C430.556 361.024 429.324 362.564 429.324 364.384V364.44C429.324 366.288 430.668 367.856 432.544 367.856Z" fill="white"/>
</svg>
